<?xml version="1.0" encoding="utf-8" standalone="no"?>
<!DOCTYPE svg PUBLIC "-//W3C//DTD SVG 1.1//EN"
  "http://www.w3.org/Graphics/SVG/1.1/DTD/svg11.dtd">
<svg xmlns:xlink="http://www.w3.org/1999/xlink" width="340.15748pt" height="226.771654pt" viewBox="0 0 340.15748 226.771654" xmlns="http://www.w3.org/2000/svg" version="1.1">
 <metadata>
  <rdf:RDF xmlns:dc="http://purl.org/dc/elements/1.1/" xmlns:cc="http://creativecommons.org/ns#" xmlns:rdf="http://www.w3.org/1999/02/22-rdf-syntax-ns#">
   <cc:Work>
    <dc:type rdf:resource="http://purl.org/dc/dcmitype/StillImage"/>
    <dc:date>2024-01-07T08:07:59.468516</dc:date>
    <dc:format>image/svg+xml</dc:format>
    <dc:creator>
     <cc:Agent>
      <dc:title>Matplotlib v3.8.0, https://matplotlib.org/</dc:title>
     </cc:Agent>
    </dc:creator>
   </cc:Work>
  </rdf:RDF>
 </metadata>
 <defs>
  <style type="text/css">*{stroke-linejoin: round; stroke-linecap: butt}</style>
 </defs>
 <g id="figure_1">
  <g id="patch_1">
   <path d="M 0 226.771654 
L 340.15748 226.771654 
L 340.15748 0 
L 0 0 
z
" style="fill: #ffffff"/>
  </g>
  <g id="axes_1">
   <g id="patch_2">
    <path d="M 43.15 198.721654 
L 328.280144 198.721654 
L 328.280144 26.35125 
L 43.15 26.35125 
z
" style="fill: #ffffff"/>
   </g>
   <g id="matplotlib.axis_1">
    <g id="xtick_1">
     <g id="line2d_1">
      <defs>
       <path id="me6eed96084" d="M 0 0 
L 0 3.5 
" style="stroke: #000000; stroke-width: 0.8"/>
      </defs>
      <g>
       <use xlink:href="#me6eed96084" x="73.391076" y="198.721654" style="stroke: #000000; stroke-width: 0.8"/>
      </g>
     </g>
     <g id="text_1">
      <!-- 11/25 -->
      <g transform="translate(60.33092 213.681029) scale(0.1 -0.1)">
       <defs>
        <path id="NotoSansJP-Regular-31" d="M 563 0 
L 3136 0 
L 3136 486 
L 2195 486 
L 2195 4698 
L 1747 4698 
C 1491 4544 1190 4435 774 4358 
L 774 3987 
L 1606 3987 
L 1606 486 
L 563 486 
L 563 0 
z
" transform="scale(0.015625)"/>
        <path id="NotoSansJP-Regular-2f" d="M 70 -1146 
L 499 -1146 
L 2413 5082 
L 1990 5082 
L 70 -1146 
z
" transform="scale(0.015625)"/>
        <path id="NotoSansJP-Regular-32" d="M 282 0 
L 3232 0 
L 3232 506 
L 1933 506 
C 1696 506 1408 480 1165 461 
C 2266 1504 3002 2458 3002 3392 
C 3002 4230 2477 4781 1638 4781 
C 1043 4781 640 4506 256 4090 
L 595 3757 
C 851 4064 1184 4301 1568 4301 
C 2150 4301 2432 3910 2432 3373 
C 2432 2566 1754 1632 282 346 
L 282 0 
z
" transform="scale(0.015625)"/>
        <path id="NotoSansJP-Regular-35" d="M 1670 -83 
C 2464 -83 3206 499 3206 1530 
C 3206 2560 2573 3021 1792 3021 
C 1510 3021 1306 2950 1094 2835 
L 1210 4192 
L 2982 4192 
L 2982 4698 
L 698 4698 
L 550 2496 
L 864 2304 
C 1133 2483 1331 2579 1645 2579 
C 2234 2579 2618 2182 2618 1510 
C 2618 826 2170 403 1619 403 
C 1075 403 736 653 467 922 
L 179 538 
C 493 224 941 -83 1670 -83 
z
" transform="scale(0.015625)"/>
       </defs>
       <use xlink:href="#NotoSansJP-Regular-31"/>
       <use xlink:href="#NotoSansJP-Regular-31" x="55.499985"/>
       <use xlink:href="#NotoSansJP-Regular-2f" x="110.999969"/>
       <use xlink:href="#NotoSansJP-Regular-32" x="150.199966"/>
       <use xlink:href="#NotoSansJP-Regular-35" x="205.699951"/>
      </g>
     </g>
    </g>
    <g id="xtick_2">
     <g id="line2d_2">
      <g>
       <use xlink:href="#me6eed96084" x="113.71251" y="198.721654" style="stroke: #000000; stroke-width: 0.8"/>
      </g>
     </g>
     <g id="text_2">
      <!-- 12/02 -->
      <g transform="translate(100.652354 213.681029) scale(0.1 -0.1)">
       <defs>
        <path id="NotoSansJP-Regular-30" d="M 1779 -83 
C 2669 -83 3238 730 3238 2362 
C 3238 3987 2669 4781 1779 4781 
C 883 4781 314 3994 314 2362 
C 314 730 883 -83 1779 -83 
z
M 1779 384 
C 1242 384 883 979 883 2362 
C 883 3731 1242 4314 1779 4314 
C 2310 4314 2669 3731 2669 2362 
C 2669 979 2310 384 1779 384 
z
" transform="scale(0.015625)"/>
       </defs>
       <use xlink:href="#NotoSansJP-Regular-31"/>
       <use xlink:href="#NotoSansJP-Regular-32" x="55.499985"/>
       <use xlink:href="#NotoSansJP-Regular-2f" x="110.999969"/>
       <use xlink:href="#NotoSansJP-Regular-30" x="150.199966"/>
       <use xlink:href="#NotoSansJP-Regular-32" x="205.699951"/>
      </g>
     </g>
    </g>
    <g id="xtick_3">
     <g id="line2d_3">
      <g>
       <use xlink:href="#me6eed96084" x="154.033945" y="198.721654" style="stroke: #000000; stroke-width: 0.8"/>
      </g>
     </g>
     <g id="text_3">
      <!-- 12/09 -->
      <g transform="translate(140.973789 213.681029) scale(0.1 -0.1)">
       <defs>
        <path id="NotoSansJP-Regular-39" d="M 832 3258 
C 832 3898 1178 4320 1626 4320 
C 2227 4320 2586 3808 2650 2842 
C 2349 2400 1990 2214 1670 2214 
C 1114 2214 832 2624 832 3258 
z
M 1498 -83 
C 2381 -83 3200 646 3200 2547 
C 3200 4038 2528 4781 1626 4781 
C 896 4781 282 4166 282 3258 
C 282 2285 794 1779 1574 1779 
C 1965 1779 2368 2003 2656 2355 
C 2611 902 2086 403 1478 403 
C 1178 403 890 538 698 762 
L 371 397 
C 634 122 992 -83 1498 -83 
z
" transform="scale(0.015625)"/>
       </defs>
       <use xlink:href="#NotoSansJP-Regular-31"/>
       <use xlink:href="#NotoSansJP-Regular-32" x="55.499985"/>
       <use xlink:href="#NotoSansJP-Regular-2f" x="110.999969"/>
       <use xlink:href="#NotoSansJP-Regular-30" x="150.199966"/>
       <use xlink:href="#NotoSansJP-Regular-39" x="205.699951"/>
      </g>
     </g>
    </g>
    <g id="xtick_4">
     <g id="line2d_4">
      <g>
       <use xlink:href="#me6eed96084" x="194.35538" y="198.721654" style="stroke: #000000; stroke-width: 0.8"/>
      </g>
     </g>
     <g id="text_4">
      <!-- 12/16 -->
      <g transform="translate(181.295223 213.681029) scale(0.1 -0.1)">
       <defs>
        <path id="NotoSansJP-Regular-36" d="M 1875 2477 
C 2445 2477 2726 2074 2726 1440 
C 2726 800 2374 371 1926 371 
C 1338 371 986 902 915 1875 
C 1203 2304 1581 2477 1875 2477 
z
M 1926 -83 
C 2656 -83 3270 531 3270 1440 
C 3270 2419 2765 2912 1971 2912 
C 1600 2912 1190 2694 902 2342 
C 928 3802 1472 4294 2112 4294 
C 2400 4294 2682 4160 2867 3936 
L 3187 4301 
C 2931 4576 2579 4781 2093 4781 
C 1184 4781 358 4077 358 2240 
C 358 691 1024 -83 1926 -83 
z
" transform="scale(0.015625)"/>
       </defs>
       <use xlink:href="#NotoSansJP-Regular-31"/>
       <use xlink:href="#NotoSansJP-Regular-32" x="55.499985"/>
       <use xlink:href="#NotoSansJP-Regular-2f" x="110.999969"/>
       <use xlink:href="#NotoSansJP-Regular-31" x="150.199966"/>
       <use xlink:href="#NotoSansJP-Regular-36" x="205.699951"/>
      </g>
     </g>
    </g>
    <g id="xtick_5">
     <g id="line2d_5">
      <g>
       <use xlink:href="#me6eed96084" x="234.676814" y="198.721654" style="stroke: #000000; stroke-width: 0.8"/>
      </g>
     </g>
     <g id="text_5">
      <!-- 12/23 -->
      <g transform="translate(221.616658 213.681029) scale(0.1 -0.1)">
       <defs>
        <path id="NotoSansJP-Regular-33" d="M 1690 -83 
C 2522 -83 3194 416 3194 1254 
C 3194 1894 2752 2317 2202 2445 
L 2202 2470 
C 2694 2656 3034 3034 3034 3603 
C 3034 4346 2458 4781 1670 4781 
C 1126 4781 710 4544 358 4218 
L 672 3846 
C 934 4115 1267 4301 1645 4301 
C 2131 4301 2438 4006 2438 3558 
C 2438 3053 2106 2662 1139 2662 
L 1139 2214 
C 2221 2214 2598 1837 2598 1280 
C 2598 736 2202 403 1645 403 
C 1114 403 755 653 480 941 
L 186 557 
C 493 224 954 -83 1690 -83 
z
" transform="scale(0.015625)"/>
       </defs>
       <use xlink:href="#NotoSansJP-Regular-31"/>
       <use xlink:href="#NotoSansJP-Regular-32" x="55.499985"/>
       <use xlink:href="#NotoSansJP-Regular-2f" x="110.999969"/>
       <use xlink:href="#NotoSansJP-Regular-32" x="150.199966"/>
       <use xlink:href="#NotoSansJP-Regular-33" x="205.699951"/>
      </g>
     </g>
    </g>
    <g id="xtick_6">
     <g id="line2d_6">
      <g>
       <use xlink:href="#me6eed96084" x="274.998249" y="198.721654" style="stroke: #000000; stroke-width: 0.8"/>
      </g>
     </g>
     <g id="text_6">
      <!-- 12/30 -->
      <g transform="translate(261.938092 213.681029) scale(0.1 -0.1)">
       <use xlink:href="#NotoSansJP-Regular-31"/>
       <use xlink:href="#NotoSansJP-Regular-32" x="55.499985"/>
       <use xlink:href="#NotoSansJP-Regular-2f" x="110.999969"/>
       <use xlink:href="#NotoSansJP-Regular-33" x="150.199966"/>
       <use xlink:href="#NotoSansJP-Regular-30" x="205.699951"/>
      </g>
     </g>
    </g>
    <g id="xtick_7">
     <g id="line2d_7">
      <g>
       <use xlink:href="#me6eed96084" x="315.319683" y="198.721654" style="stroke: #000000; stroke-width: 0.8"/>
      </g>
     </g>
     <g id="text_7">
      <!-- 01/06 -->
      <g transform="translate(302.259527 213.681029) scale(0.1 -0.1)">
       <use xlink:href="#NotoSansJP-Regular-30"/>
       <use xlink:href="#NotoSansJP-Regular-31" x="55.499985"/>
       <use xlink:href="#NotoSansJP-Regular-2f" x="110.999969"/>
       <use xlink:href="#NotoSansJP-Regular-30" x="150.199966"/>
       <use xlink:href="#NotoSansJP-Regular-36" x="205.699951"/>
      </g>
     </g>
    </g>
   </g>
   <g id="matplotlib.axis_2">
    <g id="ytick_1">
     <g id="line2d_8">
      <defs>
       <path id="m3b3321f1d1" d="M 0 0 
L -3.5 0 
" style="stroke: #000000; stroke-width: 0.8"/>
      </defs>
      <g>
       <use xlink:href="#m3b3321f1d1" x="43.15" y="198.721654" style="stroke: #000000; stroke-width: 0.8"/>
      </g>
     </g>
     <g id="text_8">
      <!-- 0 -->
      <g transform="translate(30.6 202.701341) scale(0.1 -0.1)">
       <use xlink:href="#NotoSansJP-Regular-30"/>
      </g>
     </g>
    </g>
    <g id="ytick_2">
     <g id="line2d_9">
      <g>
       <use xlink:href="#m3b3321f1d1" x="43.15" y="164.392442" style="stroke: #000000; stroke-width: 0.8"/>
      </g>
     </g>
     <g id="text_9">
      <!-- 10 -->
      <g transform="translate(25.05 168.37213) scale(0.1 -0.1)">
       <use xlink:href="#NotoSansJP-Regular-31"/>
       <use xlink:href="#NotoSansJP-Regular-30" x="55.499985"/>
      </g>
     </g>
    </g>
    <g id="ytick_3">
     <g id="line2d_10">
      <g>
       <use xlink:href="#m3b3321f1d1" x="43.15" y="130.063231" style="stroke: #000000; stroke-width: 0.8"/>
      </g>
     </g>
     <g id="text_10">
      <!-- 20 -->
      <g transform="translate(25.05 134.042918) scale(0.1 -0.1)">
       <use xlink:href="#NotoSansJP-Regular-32"/>
       <use xlink:href="#NotoSansJP-Regular-30" x="55.499985"/>
      </g>
     </g>
    </g>
    <g id="ytick_4">
     <g id="line2d_11">
      <g>
       <use xlink:href="#m3b3321f1d1" x="43.15" y="95.734019" style="stroke: #000000; stroke-width: 0.8"/>
      </g>
     </g>
     <g id="text_11">
      <!-- 30 -->
      <g transform="translate(25.05 99.713707) scale(0.1 -0.1)">
       <use xlink:href="#NotoSansJP-Regular-33"/>
       <use xlink:href="#NotoSansJP-Regular-30" x="55.499985"/>
      </g>
     </g>
    </g>
    <g id="ytick_5">
     <g id="line2d_12">
      <g>
       <use xlink:href="#m3b3321f1d1" x="43.15" y="61.404808" style="stroke: #000000; stroke-width: 0.8"/>
      </g>
     </g>
     <g id="text_12">
      <!-- 40 -->
      <g transform="translate(25.05 65.384495) scale(0.1 -0.1)">
       <defs>
        <path id="NotoSansJP-Regular-34" d="M 736 1760 
L 1805 3360 
C 1939 3590 2067 3821 2182 4051 
L 2208 4051 
C 2195 3808 2176 3430 2176 3200 
L 2176 1760 
L 736 1760 
z
M 2176 0 
L 2726 0 
L 2726 1293 
L 3347 1293 
L 3347 1760 
L 2726 1760 
L 2726 4698 
L 2080 4698 
L 128 1677 
L 128 1293 
L 2176 1293 
L 2176 0 
z
" transform="scale(0.015625)"/>
       </defs>
       <use xlink:href="#NotoSansJP-Regular-34"/>
       <use xlink:href="#NotoSansJP-Regular-30" x="55.499985"/>
      </g>
     </g>
    </g>
    <g id="ytick_6">
     <g id="line2d_13">
      <g>
       <use xlink:href="#m3b3321f1d1" x="43.15" y="27.075596" style="stroke: #000000; stroke-width: 0.8"/>
      </g>
     </g>
     <g id="text_13">
      <!-- 50 -->
      <g transform="translate(25.05 31.055284) scale(0.1 -0.1)">
       <use xlink:href="#NotoSansJP-Regular-35"/>
       <use xlink:href="#NotoSansJP-Regular-30" x="55.499985"/>
      </g>
     </g>
    </g>
    <g id="text_14">
     <!-- 累積勉強時間（時間） -->
     <g transform="translate(18.759375 162.536452) rotate(-90) scale(0.1 -0.1)">
      <defs>
       <path id="NotoSansJP-Regular-7d2f" d="M 1843 749 
C 1478 416 890 96 346 -115 
C 454 -192 627 -352 710 -429 
C 1229 -186 1856 198 2272 582 
L 1843 749 
z
M 1318 3846 
L 2963 3846 
L 2963 3290 
L 1318 3290 
L 1318 3846 
z
M 1318 4755 
L 2963 4755 
L 2963 4211 
L 1318 4211 
L 1318 4755 
z
M 5101 4211 
L 3418 4211 
L 3418 4755 
L 5101 4755 
L 5101 4211 
z
M 5101 3290 
L 3418 3290 
L 3418 3846 
L 5101 3846 
L 5101 3290 
z
M 5274 998 
C 5427 877 5562 768 5664 666 
L 6035 928 
C 5677 1261 4973 1715 4410 2003 
L 4064 1766 
C 4288 1645 4531 1504 4762 1350 
C 3994 1338 3226 1318 2515 1312 
C 3213 1677 3987 2150 4589 2579 
L 4166 2810 
C 3770 2496 3194 2112 2618 1773 
C 2470 1888 2285 2010 2086 2131 
C 2413 2349 2790 2630 3098 2899 
L 3085 2906 
L 5562 2906 
L 5562 5139 
L 864 5139 
L 864 2906 
L 2464 2906 
C 2253 2707 1990 2496 1754 2323 
C 1594 2406 1440 2490 1293 2560 
L 954 2304 
C 1376 2093 1875 1792 2208 1542 
C 2048 1453 1894 1376 1754 1299 
C 1267 1293 826 1293 454 1293 
L 474 890 
C 1139 896 2010 915 2957 941 
L 2957 -486 
L 3418 -486 
L 3418 947 
L 5274 998 
z
M 4038 518 
C 4589 250 5267 -154 5600 -429 
L 5965 -154 
C 5600 128 4915 518 4384 762 
L 4038 518 
z
" transform="scale(0.015625)"/>
       <path id="NotoSansJP-Regular-7a4d" d="M 2630 1882 
C 2509 2022 1984 2560 1786 2752 
L 1786 3142 
L 2509 3142 
L 2509 3366 
L 6118 3366 
L 6118 3693 
L 4506 3693 
L 4506 4038 
L 5798 4038 
L 5798 4346 
L 4506 4346 
L 4506 4678 
L 5958 4678 
L 5958 4998 
L 4506 4998 
L 4506 5350 
L 4032 5350 
L 4032 4998 
L 2675 4998 
L 2675 4678 
L 4032 4678 
L 4032 4346 
L 2816 4346 
L 2816 4038 
L 4032 4038 
L 4032 3693 
L 2477 3693 
L 2477 3590 
L 1786 3590 
L 1786 4659 
C 2080 4730 2362 4806 2592 4902 
L 2259 5261 
C 1811 5062 998 4896 307 4787 
C 365 4685 435 4525 454 4422 
C 730 4454 1030 4506 1325 4557 
L 1325 3590 
L 346 3590 
L 346 3142 
L 1286 3142 
C 1037 2406 589 1568 179 1114 
C 256 998 371 813 422 678 
C 742 1062 1069 1683 1325 2323 
L 1325 -474 
L 1786 -474 
L 1786 2278 
C 1997 2016 2246 1683 2349 1504 
L 2630 1882 
z
M 3341 1280 
L 5306 1280 
L 5306 851 
L 3341 851 
L 3341 1280 
z
M 3341 2003 
L 5306 2003 
L 5306 1587 
L 3341 1587 
L 3341 2003 
z
M 3341 2720 
L 5306 2720 
L 5306 2317 
L 3341 2317 
L 3341 2720 
z
M 5754 531 
L 5754 3040 
L 2906 3040 
L 2906 531 
L 5754 531 
z
M 3622 499 
C 3322 237 2720 -51 2195 -198 
C 2291 -282 2432 -422 2502 -512 
C 3027 -352 3642 -45 4019 262 
L 3622 499 
z
M 4627 243 
C 5037 0 5498 -301 5754 -493 
L 6170 -262 
C 5869 -58 5376 237 4947 480 
L 4627 243 
z
" transform="scale(0.015625)"/>
       <path id="NotoSansJP-Regular-52c9" d="M 1062 3392 
L 1805 3392 
L 1805 2298 
L 1062 2298 
L 1062 3392 
z
M 2330 4467 
C 2227 4237 2086 3994 1946 3789 
L 973 3789 
C 1152 4006 1312 4237 1446 4467 
L 2330 4467 
z
M 2976 2298 
L 2214 2298 
L 2214 3392 
L 2976 3392 
L 2976 2298 
z
M 3296 13 
C 2739 13 2643 64 2643 301 
L 2643 1894 
L 3418 1894 
L 3418 3597 
L 4179 3597 
C 4102 2317 3866 1350 3066 755 
C 3168 691 3322 531 3373 429 
C 4269 1101 4538 2176 4627 3597 
L 5504 3597 
C 5446 1869 5376 1242 5248 1094 
C 5197 1018 5146 1005 5050 1005 
C 4947 1005 4723 1011 4474 1030 
C 4544 909 4589 723 4602 582 
C 4851 570 5107 570 5254 589 
C 5421 608 5536 659 5638 794 
C 5824 1030 5882 1747 5958 3834 
L 5958 4045 
L 4646 4045 
C 4659 4435 4666 4858 4672 5293 
L 4224 5293 
C 4218 4851 4218 4435 4205 4045 
L 3418 4045 
L 3418 3789 
L 2413 3789 
C 2592 4070 2771 4410 2886 4698 
L 2605 4870 
L 2534 4851 
L 1658 4851 
C 1728 4998 1792 5146 1850 5286 
L 1414 5357 
C 1210 4813 819 4122 211 3610 
C 314 3552 461 3418 531 3334 
L 634 3430 
L 634 1894 
L 1293 1894 
C 1216 1043 1005 250 211 -160 
C 307 -243 448 -416 512 -518 
C 1389 -19 1626 877 1722 1894 
L 2202 1894 
L 2202 294 
C 2202 -256 2426 -390 3302 -390 
L 5222 -390 
C 5907 -390 6061 -205 6138 538 
C 6016 563 5830 634 5728 704 
C 5683 115 5619 13 5203 13 
L 3296 13 
z
" transform="scale(0.015625)"/>
       <path id="NotoSansJP-Regular-5f37" d="M 819 2349 
C 845 2624 877 2912 896 3194 
L 2182 3194 
L 2182 5024 
L 397 5024 
L 397 4595 
L 1728 4595 
L 1728 3622 
L 512 3622 
C 474 3021 384 2208 307 1715 
L 730 1645 
C 742 1734 755 1830 768 1933 
L 1734 1933 
C 1670 659 1587 160 1472 32 
C 1421 -26 1357 -38 1248 -38 
C 1133 -38 832 -38 512 -6 
C 589 -134 640 -326 653 -467 
C 966 -486 1267 -486 1440 -467 
C 1626 -454 1741 -416 1850 -282 
C 2035 -70 2099 525 2182 2138 
C 2189 2208 2189 2349 2189 2349 
L 819 2349 
z
M 3027 1658 
L 3027 2566 
L 3981 2566 
L 3981 1658 
L 3027 1658 
z
M 5395 2566 
L 5395 1658 
L 4435 1658 
L 4435 2566 
L 5395 2566 
z
M 6234 -346 
C 6074 64 5658 659 5274 1101 
L 4890 915 
C 5043 730 5210 518 5350 307 
L 4435 237 
L 4435 1254 
L 5850 1254 
L 5850 2970 
L 4435 2970 
L 4435 3667 
C 4787 3686 5152 3712 5510 3738 
C 5613 3597 5696 3462 5754 3347 
L 6170 3571 
C 5971 3936 5530 4474 5133 4858 
L 4742 4666 
C 4902 4506 5062 4320 5216 4134 
C 4602 4096 3987 4064 3443 4038 
C 3674 4403 3930 4851 4134 5242 
L 3635 5376 
C 3469 4966 3194 4416 2944 4019 
L 2400 3994 
L 2464 3539 
C 2893 3565 3418 3597 3981 3635 
L 3981 2970 
L 2592 2970 
L 2592 1254 
L 3981 1254 
L 3981 205 
C 3341 160 2758 122 2310 96 
L 2374 -371 
C 3213 -301 4442 -205 5613 -102 
C 5702 -262 5779 -416 5830 -544 
L 6234 -346 
z
" transform="scale(0.015625)"/>
       <path id="NotoSansJP-Regular-6642" d="M 1875 4506 
L 1875 3085 
L 947 3085 
L 947 4506 
L 1875 4506 
z
M 947 1190 
L 947 2669 
L 1875 2669 
L 1875 1190 
L 947 1190 
z
M 2323 4934 
L 512 4934 
L 512 243 
L 947 243 
L 947 762 
L 2323 762 
L 2323 4934 
z
M 2848 1350 
C 3174 1011 3514 538 3661 224 
L 4064 480 
C 3917 794 3558 1248 3232 1568 
L 2848 1350 
z
M 6150 2938 
L 6150 3360 
L 4499 3360 
L 4499 4173 
L 5875 4173 
L 5875 4595 
L 4499 4595 
L 4499 5357 
L 4032 5357 
L 4032 4595 
L 2701 4595 
L 2701 4173 
L 4032 4173 
L 4032 3360 
L 2426 3360 
L 2426 2938 
L 4877 2938 
L 4877 2214 
L 2458 2214 
L 2458 1792 
L 4877 1792 
L 4877 83 
C 4877 -13 4845 -38 4736 -45 
C 4634 -51 4282 -51 3885 -38 
C 3955 -160 4019 -352 4038 -480 
C 4557 -480 4877 -474 5075 -403 
C 5267 -333 5338 -192 5338 77 
L 5338 1792 
L 6080 1792 
L 6080 2214 
L 5338 2214 
L 5338 2938 
L 6150 2938 
z
" transform="scale(0.015625)"/>
       <path id="NotoSansJP-Regular-9593" d="M 2451 4710 
L 2451 4179 
L 1069 4179 
L 1069 4710 
L 2451 4710 
z
M 1069 3264 
L 1069 3827 
L 2451 3827 
L 2451 3264 
L 1069 3264 
z
M 2906 2899 
L 2906 5082 
L 595 5082 
L 595 -493 
L 1069 -493 
L 1069 2899 
L 2906 2899 
z
M 3936 2048 
L 3936 1459 
L 2432 1459 
L 2432 2048 
L 3936 2048 
z
M 2432 480 
L 2432 1101 
L 3936 1101 
L 3936 480 
L 2432 480 
z
M 4378 102 
L 4378 2419 
L 2003 2419 
L 2003 -218 
L 2432 -218 
L 2432 102 
L 4378 102 
z
M 3930 3258 
L 3930 3827 
L 5363 3827 
L 5363 3258 
L 3930 3258 
z
M 5363 4710 
L 5363 4179 
L 3930 4179 
L 3930 4710 
L 5363 4710 
z
M 5843 5082 
L 3475 5082 
L 3475 2893 
L 5363 2893 
L 5363 147 
C 5363 32 5325 -6 5216 -6 
C 5101 -13 4710 -19 4320 0 
C 4390 -128 4467 -352 4486 -486 
C 5018 -486 5357 -480 5562 -403 
C 5773 -320 5843 -160 5843 141 
L 5843 5082 
z
" transform="scale(0.015625)"/>
       <path id="NotoSansJP-Regular-ff08" d="M 4448 2432 
C 4448 1184 4954 166 5722 -614 
L 6106 -416 
C 5370 346 4915 1293 4915 2432 
C 4915 3571 5370 4518 6106 5280 
L 5722 5478 
C 4954 4698 4448 3680 4448 2432 
z
" transform="scale(0.015625)"/>
       <path id="NotoSansJP-Regular-ff09" d="M 1952 2432 
C 1952 3680 1446 4698 678 5478 
L 294 5280 
C 1030 4518 1485 3571 1485 2432 
C 1485 1293 1030 346 294 -416 
L 678 -614 
C 1446 166 1952 1184 1952 2432 
z
" transform="scale(0.015625)"/>
      </defs>
      <use xlink:href="#NotoSansJP-Regular-7d2f"/>
      <use xlink:href="#NotoSansJP-Regular-7a4d" x="99.999985"/>
      <use xlink:href="#NotoSansJP-Regular-52c9" x="199.999969"/>
      <use xlink:href="#NotoSansJP-Regular-5f37" x="299.999954"/>
      <use xlink:href="#NotoSansJP-Regular-6642" x="399.999939"/>
      <use xlink:href="#NotoSansJP-Regular-9593" x="499.999924"/>
      <use xlink:href="#NotoSansJP-Regular-ff08" x="599.999908"/>
      <use xlink:href="#NotoSansJP-Regular-6642" x="699.999893"/>
      <use xlink:href="#NotoSansJP-Regular-9593" x="799.999878"/>
      <use xlink:href="#NotoSansJP-Regular-ff09" x="899.999863"/>
     </g>
    </g>
   </g>
   <g id="line2d_14">
    <path d="M 56.110461 198.721654 
L 61.870666 181.557048 
L 67.630871 172.116515 
L 73.391076 160.330152 
L 79.151281 131.436399 
L 84.911486 116.045469 
L 90.671691 116.045469 
L 96.431896 116.045469 
L 102.192101 110.49558 
L 107.952306 110.49558 
L 113.71251 107.005444 
L 119.472715 107.005444 
L 125.23292 107.005444 
L 130.993125 107.005444 
L 136.75333 107.005444 
L 142.513535 107.005444 
L 148.27374 107.005444 
L 154.033945 107.005444 
L 159.79415 107.005444 
L 165.554355 107.005444 
L 171.31456 107.005444 
L 177.074765 107.005444 
L 182.83497 107.005444 
L 188.595175 107.005444 
L 194.35538 107.005444 
L 200.115585 107.005444 
L 205.875789 107.005444 
L 211.635994 107.005444 
L 217.396199 107.005444 
L 223.156404 107.005444 
L 228.916609 99.567448 
L 234.676814 99.567448 
L 240.437019 98.594787 
L 246.197224 98.594787 
L 251.957429 98.594787 
L 257.717634 98.594787 
L 263.477839 91.156791 
L 269.238044 91.156791 
L 274.998249 87.151716 
L 280.758454 76.738522 
L 286.518659 72.619017 
L 292.278864 69.12888 
L 298.039068 68.785588 
L 303.799273 68.785588 
L 309.559478 68.785588 
L 315.319683 61.919746 
" clip-path="url(#pf826cc9104)" style="fill: none; stroke: #1f77b4; stroke-width: 1.5; stroke-linecap: square"/>
   </g>
   <g id="LineCollection_1">
    <path d="M 79.151281 198.721654 
L 79.151281 26.35125 
" clip-path="url(#pf826cc9104)" style="fill: none; stroke: #ff0000; stroke-opacity: 0.5; stroke-width: 1.5"/>
   </g>
   <g id="patch_3">
    <path d="M 43.15 198.721654 
L 43.15 26.35125 
" style="fill: none; stroke: #000000; stroke-width: 0.8; stroke-linejoin: miter; stroke-linecap: square"/>
   </g>
   <g id="patch_4">
    <path d="M 328.280144 198.721654 
L 328.280144 26.35125 
" style="fill: none; stroke: #000000; stroke-width: 0.8; stroke-linejoin: miter; stroke-linecap: square"/>
   </g>
   <g id="patch_5">
    <path d="M 43.15 198.721654 
L 328.280144 198.721654 
" style="fill: none; stroke: #000000; stroke-width: 0.8; stroke-linejoin: miter; stroke-linecap: square"/>
   </g>
   <g id="patch_6">
    <path d="M 43.15 26.35125 
L 328.280144 26.35125 
" style="fill: none; stroke: #000000; stroke-width: 0.8; stroke-linejoin: miter; stroke-linecap: square"/>
   </g>
   <g id="text_15">
    <!-- 日商簿記3級 -->
    <g style="fill: #ff0000; opacity: 0.5" transform="translate(82.002582 112.536452) scale(0.1 -0.1)">
     <defs>
      <path id="NotoSansJP-Regular-65e5" d="M 1632 467 
L 1632 2253 
L 4806 2253 
L 4806 467 
L 1632 467 
z
M 4806 4448 
L 4806 2720 
L 1632 2720 
L 1632 4448 
L 4806 4448 
z
M 1152 4915 
L 1152 -416 
L 1632 -416 
L 1632 0 
L 4806 0 
L 4806 -390 
L 5306 -390 
L 5306 4915 
L 1152 4915 
z
" transform="scale(0.015625)"/>
      <path id="NotoSansJP-Regular-5546" d="M 4000 1389 
L 4000 570 
L 2445 570 
L 2445 1389 
L 4000 1389 
z
M 4435 198 
L 4435 1760 
L 2022 1760 
L 2022 -192 
L 2445 -192 
L 2445 198 
L 4435 198 
z
M 2496 3642 
C 2438 3827 2323 4096 2195 4314 
L 4192 4314 
C 4102 4096 3968 3827 3859 3642 
L 2496 3642 
z
M 5952 4314 
L 5952 4749 
L 3418 4749 
L 3418 5350 
L 2938 5350 
L 2938 4749 
L 461 4749 
L 461 4314 
L 1683 4314 
C 1792 4115 1914 3846 1984 3642 
L 730 3642 
L 730 -480 
L 1178 -480 
L 1178 3226 
L 2323 3226 
C 2259 2630 2029 2336 1222 2170 
C 1306 2093 1414 1933 1453 1837 
C 2387 2061 2675 2458 2752 3226 
L 3514 3226 
L 3514 2586 
C 3514 2189 3622 2086 4070 2086 
L 4730 2086 
C 5069 2086 5184 2214 5229 2726 
C 5107 2752 4934 2810 4864 2874 
C 4845 2496 4819 2451 4678 2451 
L 4122 2451 
C 3962 2451 3936 2464 3936 2592 
L 3936 3226 
L 5274 3226 
L 5274 102 
C 5274 0 5242 -32 5133 -32 
C 5018 -38 4634 -45 4218 -26 
C 4288 -147 4358 -365 4378 -486 
C 4902 -486 5254 -480 5466 -410 
C 5670 -333 5734 -179 5734 102 
L 5734 3642 
L 4384 3642 
C 4499 3834 4627 4070 4749 4314 
L 5952 4314 
z
" transform="scale(0.015625)"/>
      <path id="NotoSansJP-Regular-7c3f" d="M 1581 4454 
C 1734 4230 1894 3949 1958 3770 
L 2355 3904 
C 2298 4051 2176 4262 2042 4454 
L 3078 4454 
L 3078 4813 
L 1517 4813 
C 1600 4954 1670 5101 1728 5242 
L 1293 5357 
C 1075 4838 717 4320 326 3974 
C 435 3923 621 3795 710 3718 
C 909 3917 1120 4173 1306 4454 
L 1581 4454 
z
M 1958 3123 
C 1728 3296 1267 3514 915 3648 
L 698 3322 
C 1056 3168 1504 2938 1734 2758 
L 1958 3123 
z
M 1645 1997 
C 1402 2150 922 2355 557 2464 
L 346 2125 
C 723 2003 1190 1779 1434 1613 
L 1645 1997 
z
M 1747 1562 
C 1370 966 883 288 550 -102 
L 902 -416 
C 1267 70 1702 710 2042 1261 
L 1747 1562 
z
M 2694 1978 
L 3763 1978 
L 3763 1581 
L 2694 1581 
L 2694 1978 
z
M 2694 2630 
L 3763 2630 
L 3763 2246 
L 2694 2246 
L 2694 2630 
z
M 5350 2630 
L 5350 2246 
L 4198 2246 
L 4198 2630 
L 5350 2630 
z
M 5350 1581 
L 4198 1581 
L 4198 1978 
L 5350 1978 
L 5350 1581 
z
M 4922 1299 
L 5773 1299 
L 5773 2918 
L 4198 2918 
L 4198 3232 
L 6003 3232 
L 6003 3571 
L 5690 3571 
L 5850 3763 
C 5670 3891 5331 4058 5069 4154 
L 4832 3885 
C 5030 3802 5267 3680 5446 3571 
L 4198 3571 
L 4198 3891 
L 3763 3891 
L 3763 3571 
L 2048 3571 
L 2048 3232 
L 3763 3232 
L 3763 2918 
L 2285 2918 
L 2285 1299 
L 4480 1299 
L 4480 934 
L 1894 934 
L 1894 576 
L 2822 576 
L 2515 371 
C 2790 173 3085 -115 3213 -339 
L 3558 -102 
C 3418 115 3123 390 2848 576 
L 4480 576 
L 4480 -38 
C 4480 -102 4454 -122 4365 -128 
C 4288 -134 3987 -141 3667 -128 
C 3718 -230 3782 -371 3808 -480 
C 4256 -480 4531 -480 4704 -422 
C 4883 -365 4922 -269 4922 -51 
L 4922 576 
L 6054 576 
L 6054 934 
L 4922 934 
L 4922 1299 
z
M 3904 4813 
C 3994 4954 4070 5101 4134 5248 
L 3686 5357 
C 3469 4832 3059 4339 2598 4026 
C 2714 3968 2912 3859 3002 3789 
C 3226 3962 3456 4192 3654 4454 
L 4102 4454 
C 4275 4243 4442 3987 4525 3814 
L 4902 3968 
C 4838 4102 4710 4288 4576 4454 
L 6074 4454 
L 6074 4813 
L 3904 4813 
z
" transform="scale(0.015625)"/>
      <path id="NotoSansJP-Regular-8a18" d="M 2579 5133 
L 602 5133 
L 602 4749 
L 2579 4749 
L 2579 5133 
z
M 2106 1338 
L 2106 262 
L 986 262 
L 986 1338 
L 2106 1338 
z
M 2534 1728 
L 563 1728 
L 563 -416 
L 986 -416 
L 986 -122 
L 2534 -122 
L 2534 1728 
z
M 570 2202 
L 2554 2202 
L 2554 2586 
L 570 2586 
L 570 2202 
z
M 570 3053 
L 2554 3053 
L 2554 3430 
L 570 3430 
L 570 3053 
z
M 269 3904 
L 2790 3904 
L 2790 4294 
L 269 4294 
L 269 3904 
z
M 4051 32 
C 3699 32 3635 83 3635 333 
L 3635 2470 
L 5331 2470 
L 5331 2118 
L 5805 2118 
L 5805 4992 
L 3085 4992 
L 3085 4544 
L 5331 4544 
L 5331 2925 
L 3155 2925 
L 3155 333 
C 3155 -269 3354 -416 4013 -416 
L 5293 -416 
C 5926 -416 6074 -134 6144 890 
C 6010 922 5811 998 5696 1088 
C 5658 198 5606 32 5261 32 
L 4051 32 
z
" transform="scale(0.015625)"/>
      <path id="NotoSansJP-Regular-7d1a" d="M 602 1728 
C 531 1165 397 595 186 205 
C 288 173 480 83 557 26 
C 768 435 922 1050 1011 1651 
L 602 1728 
z
M 2285 2208 
C 2336 2067 2381 1933 2406 1824 
L 2758 1984 
C 2675 2330 2419 2880 2157 3290 
L 1824 3155 
C 1926 2982 2029 2790 2118 2592 
C 1766 2573 1427 2554 1107 2541 
C 1530 3091 2016 3840 2381 4448 
L 1978 4627 
C 1811 4288 1581 3878 1331 3482 
C 1229 3610 1101 3757 960 3898 
C 1197 4256 1466 4762 1683 5184 
L 1267 5350 
C 1133 4998 909 4518 691 4160 
C 627 4218 570 4275 506 4326 
L 262 4013 
C 557 3750 890 3392 1088 3110 
C 947 2899 800 2694 666 2522 
L 243 2502 
L 282 2080 
C 576 2099 922 2118 1286 2138 
L 1286 -499 
L 1709 -499 
L 1709 2170 
L 2285 2208 
z
M 3507 4518 
L 4653 4518 
C 4557 3974 4416 3232 4288 2675 
L 4717 2624 
L 4781 2918 
L 5478 2918 
C 5306 2202 5011 1600 4640 1114 
C 4064 1914 3712 2995 3507 4192 
L 3507 4518 
z
M 5734 3366 
L 5651 3347 
L 4870 3347 
C 4986 3898 5094 4480 5165 4928 
L 4845 4973 
L 4768 4954 
L 2458 4954 
L 2458 4518 
L 3085 4518 
L 3085 3578 
C 3085 2771 3040 1728 2650 768 
C 2573 1062 2426 1466 2278 1773 
L 1933 1664 
C 2093 1306 2253 832 2310 525 
L 2586 621 
C 2451 326 2285 38 2074 -224 
C 2182 -275 2349 -403 2426 -474 
C 3168 467 3411 1651 3482 2688 
C 3693 1958 3974 1306 4352 768 
C 3987 384 3558 90 3098 -128 
C 3206 -198 3360 -378 3424 -480 
C 3859 -256 4269 38 4627 416 
C 4973 26 5389 -282 5888 -493 
C 5958 -371 6093 -192 6195 -102 
C 5690 83 5274 378 4928 762 
C 5421 1395 5805 2221 6016 3258 
L 5734 3366 
z
" transform="scale(0.015625)"/>
     </defs>
     <use xlink:href="#NotoSansJP-Regular-65e5"/>
     <use xlink:href="#NotoSansJP-Regular-5546" x="99.999985"/>
     <use xlink:href="#NotoSansJP-Regular-7c3f" x="199.999969"/>
     <use xlink:href="#NotoSansJP-Regular-8a18" x="299.999954"/>
     <use xlink:href="#NotoSansJP-Regular-33" x="399.999939"/>
     <use xlink:href="#NotoSansJP-Regular-7d1a" x="455.499924"/>
    </g>
   </g>
   <g id="text_16">
    <!-- 会計系資格勉強時間 -->
    <g transform="translate(131.715072 20.35125) scale(0.12 -0.12)">
     <defs>
      <path id="NotoSansJP-Regular-4f1a" d="M 589 1722 
L 2272 1722 
C 2099 1254 1824 672 1581 230 
C 1235 218 915 211 640 205 
L 704 -262 
C 1798 -224 3456 -154 5024 -77 
C 5146 -230 5242 -378 5318 -506 
L 5747 -243 
C 5453 230 4832 922 4243 1427 
L 3840 1210 
C 4122 960 4422 646 4685 346 
C 3789 307 2886 275 2093 250 
C 2349 698 2624 1248 2848 1722 
L 5850 1722 
L 5850 2163 
L 589 2163 
L 589 1722 
z
M 1677 3379 
L 1677 2944 
L 4704 2944 
L 4704 3379 
L 1677 3379 
z
M 2906 5344 
C 2413 4531 1350 3610 256 3085 
C 358 2989 480 2816 531 2707 
C 1619 3245 2656 4122 3174 4890 
C 3770 4064 4890 3213 5875 2733 
C 5958 2874 6074 3040 6182 3155 
C 5178 3571 4064 4403 3392 5344 
L 2906 5344 
z
" transform="scale(0.015625)"/>
      <path id="NotoSansJP-Regular-8a08" d="M 2554 5133 
L 602 5133 
L 602 4749 
L 2554 4749 
L 2554 5133 
z
M 2790 4294 
L 269 4294 
L 269 3904 
L 2790 3904 
L 2790 4294 
z
M 2106 1338 
L 2106 262 
L 986 262 
L 986 1338 
L 2106 1338 
z
M 2534 1728 
L 563 1728 
L 563 -416 
L 986 -416 
L 986 -122 
L 2534 -122 
L 2534 1728 
z
M 570 2202 
L 2554 2202 
L 2554 2586 
L 570 2586 
L 570 2202 
z
M 570 3053 
L 2554 3053 
L 2554 3430 
L 570 3430 
L 570 3053 
z
M 6189 3181 
L 4755 3181 
L 4755 5338 
L 4282 5338 
L 4282 3181 
L 2784 3181 
L 2784 2714 
L 4282 2714 
L 4282 -486 
L 4755 -486 
L 4755 2714 
L 6189 2714 
L 6189 3181 
z
" transform="scale(0.015625)"/>
      <path id="NotoSansJP-Regular-7cfb" d="M 1734 1235 
C 1382 762 806 282 269 -32 
C 397 -102 595 -262 691 -358 
C 1203 -13 1805 531 2214 1056 
L 1734 1235 
z
M 6118 1434 
C 5792 1869 5107 2509 4550 2957 
L 4166 2714 
C 4397 2522 4640 2304 4870 2074 
C 4058 2061 3232 2042 2470 2029 
C 3219 2618 4077 3392 4717 4064 
L 4269 4307 
C 3853 3827 3270 3264 2688 2758 
C 2496 2938 2234 3136 1958 3322 
C 2323 3654 2746 4109 3072 4512 
L 3002 4550 
C 3968 4621 4896 4723 5613 4864 
L 5267 5261 
C 4173 5043 2214 4909 576 4864 
C 621 4749 685 4563 691 4442 
C 1254 4454 1856 4480 2451 4512 
C 2208 4192 1888 3827 1606 3558 
C 1459 3648 1312 3738 1171 3814 
L 851 3520 
C 1363 3226 1952 2797 2323 2445 
C 2131 2291 1952 2150 1773 2022 
C 1254 2016 774 2010 378 2003 
L 429 1523 
C 1107 1542 1990 1562 2944 1587 
L 2944 -486 
L 3437 -486 
L 3437 1600 
C 4045 1619 4666 1638 5274 1658 
C 5446 1472 5594 1299 5696 1152 
L 6118 1434 
z
M 4102 998 
C 4653 595 5338 13 5658 -346 
L 6074 -51 
C 5722 314 5024 877 4486 1261 
L 4102 998 
z
" transform="scale(0.015625)"/>
      <path id="NotoSansJP-Regular-8cc7" d="M 3789 4531 
C 3635 3949 3251 3629 2208 3443 
C 2285 3360 2394 3206 2432 3104 
C 3341 3283 3814 3584 4064 4058 
C 4301 3597 4768 3187 5856 2995 
C 5901 3110 6010 3290 6099 3379 
C 4787 3571 4429 4038 4288 4531 
L 5312 4531 
C 5197 4346 5056 4166 4922 4038 
L 5299 3904 
C 5530 4128 5766 4486 5946 4813 
L 5626 4909 
L 5549 4890 
L 3360 4890 
C 3443 5024 3514 5152 3578 5286 
L 3149 5357 
C 2982 4973 2662 4544 2182 4211 
C 2298 4166 2451 4064 2541 3974 
C 2765 4147 2950 4333 3110 4531 
L 3789 4531 
z
M 1632 1293 
L 4838 1293 
L 4838 845 
L 1632 845 
L 1632 1293 
z
M 1632 2042 
L 4838 2042 
L 4838 1600 
L 1632 1600 
L 1632 2042 
z
M 1632 2778 
L 4838 2778 
L 4838 2349 
L 1632 2349 
L 1632 2778 
z
M 1171 531 
L 5312 531 
L 5312 3098 
L 1171 3098 
L 1171 531 
z
M 2182 4723 
C 1875 4883 1286 5094 845 5216 
L 634 4890 
C 1088 4749 1677 4525 1971 4352 
L 2182 4723 
z
M 2106 4026 
C 1453 3846 781 3654 320 3546 
L 506 3130 
C 986 3283 1587 3469 2163 3654 
L 2106 4026 
z
M 2240 467 
C 1786 211 1018 -13 365 -147 
C 474 -230 634 -416 717 -506 
C 1350 -333 2150 -38 2669 262 
L 2240 467 
z
M 3731 205 
C 4429 -26 5120 -294 5517 -499 
L 6042 -262 
C 5574 -51 4813 224 4122 448 
L 3731 205 
z
" transform="scale(0.015625)"/>
      <path id="NotoSansJP-Regular-683c" d="M 3277 1843 
C 3642 2042 3994 2285 4320 2566 
C 4627 2291 4986 2042 5395 1843 
L 3277 1843 
z
M 3398 205 
L 3398 1434 
L 5184 1434 
L 5184 205 
L 3398 205 
z
M 3674 4256 
L 5069 4256 
C 4883 3853 4621 3488 4314 3168 
C 4006 3482 3770 3814 3597 4141 
L 3674 4256 
z
M 5370 4691 
L 5286 4672 
L 3917 4672 
C 4013 4858 4102 5043 4179 5235 
L 3718 5363 
C 3469 4710 3059 4090 2586 3635 
L 2586 3987 
L 1760 3987 
L 1760 5357 
L 1306 5357 
L 1306 3987 
L 352 3987 
L 352 3546 
L 1254 3546 
C 1050 2669 627 1670 205 1133 
C 288 1024 403 838 454 710 
C 768 1133 1075 1824 1306 2541 
L 1306 -480 
L 1760 -480 
L 1760 2714 
C 1958 2438 2182 2099 2285 1914 
L 2566 2285 
C 2445 2438 1946 3053 1760 3258 
L 1760 3546 
L 2490 3546 
C 2438 3501 2381 3456 2330 3411 
C 2438 3341 2624 3181 2707 3091 
C 2925 3283 3136 3514 3334 3770 
C 3507 3469 3731 3162 4000 2874 
C 3462 2413 2829 2067 2189 1862 
C 2285 1773 2406 1600 2458 1478 
C 2630 1542 2797 1606 2963 1690 
L 2963 -493 
L 3398 -493 
L 3398 -211 
L 5184 -211 
L 5184 -467 
L 5632 -467 
L 5632 1734 
C 5728 1696 5830 1658 5933 1619 
C 5997 1741 6131 1926 6227 2016 
C 5600 2208 5069 2509 4634 2874 
C 5075 3334 5440 3891 5664 4550 
L 5370 4691 
z
" transform="scale(0.015625)"/>
     </defs>
     <use xlink:href="#NotoSansJP-Regular-4f1a"/>
     <use xlink:href="#NotoSansJP-Regular-8a08" x="99.999985"/>
     <use xlink:href="#NotoSansJP-Regular-7cfb" x="199.999969"/>
     <use xlink:href="#NotoSansJP-Regular-8cc7" x="299.999954"/>
     <use xlink:href="#NotoSansJP-Regular-683c" x="399.999939"/>
     <use xlink:href="#NotoSansJP-Regular-52c9" x="499.999924"/>
     <use xlink:href="#NotoSansJP-Regular-5f37" x="599.999908"/>
     <use xlink:href="#NotoSansJP-Regular-6642" x="699.999893"/>
     <use xlink:href="#NotoSansJP-Regular-9593" x="799.999878"/>
    </g>
   </g>
  </g>
 </g>
 <defs>
  <clipPath id="pf826cc9104">
   <rect x="43.15" y="26.35125" width="285.130144" height="172.370404"/>
  </clipPath>
 </defs>
</svg>
